<?xml version="1.0" encoding="utf-8"?>
<!DOCTYPE svg PUBLIC "-//W3C//DTD SVG 20010904//EN" "http://www.w3.org/TR/2001/REC-SVG-20010904/DTD/svg10.dtd">
<svg version="1.0" xmlns="http://www.w3.org/2000/svg" width="617px" height="683px" viewBox="0 0 617 683" preserveAspectRatio="xMidYMid meet">
 <g fill="#ffffff">
 </g>
 <g fill="#f7f7f7">
 </g>
 <g fill="#efefef">
  <path d="M192.4 519.9 c0.4 -37.1 0.9 -80.3 1.2 -96.1 l0.5 -28.8 -78 0 -78.1 0 0 -178.5 0 -178.5 37 0 37 0 0 143 0 143 40.9 0 40.9 0 0.6 -21.2 c0.3 -11.7 0.8 -60 1.2 -107.3 0.3 -47.3 0.8 -86.2 1 -86.4 0.3 -0.3 28.9 -0.9 63.7 -1.4 82.5 -1.2 111.7 0.1 143.3 6.3 67.2 13.2 105.7 49.3 114.5 107.5 1.8 11.7 1.5 35.3 -0.6 45 -5.5 26.3 -16.9 47 -35.9 65.3 -11.2 10.7 -21.4 17.8 -35.1 24.3 -5.8 2.8 -10.5 5.6 -10.5 6.2 0 0.7 2.4 2.3 5.2 3.7 6.3 3 15.4 10.1 20.7 16.1 10.3 12 18.6 27.4 36.1 67.5 l1.8 4.2 -37.6 19.7 c-20.7 10.9 -38.4 20.2 -39.3 20.6 -1.4 0.7 -2.7 -2 -8.4 -16.2 -5.3 -13.2 -8.5 -19.7 -14.8 -29.2 -16 -24.6 -28.4 -39 -37.5 -43.6 -9.7 -4.9 -13 -5.4 -45.9 -5.9 l-31.3 -0.4 0 93.6 0 93.6 -20.8 0 c-11.5 0 -32.5 0.3 -46.6 0.7 l-25.7 0.6 0.5 -67.4z m150.6 -198.9 c13.5 -1.4 24.1 -4.3 34.8 -9.6 16.2 -7.9 27.6 -20.7 32.9 -36.8 2.2 -7 2.6 -9.9 2.7 -21.1 0.1 -20.8 -4.5 -33.6 -16.4 -45.5 -10.4 -10.4 -23.4 -16.4 -42.5 -19.5 -14.1 -2.3 -48.5 -1.8 -65.7 1.1 l-3.8 0.6 0 65.9 0 65.9 24.3 0 c13.3 0 28.5 -0.5 33.7 -1z"/>
 </g>
 <g fill="#e6e6e6">
 </g>
 <g fill="#dedede">
 </g>
 <g fill="#d6d6d6">
 </g>
 <g fill="#cecece">
 </g>
 <g fill="#c5c5c5">
 </g>
 <g fill="#bdbdbd">
 </g>
 <g fill="#b5b5b5">
 </g>
 <g fill="#adadad">
 </g>
 <g fill="#a5a5a5">
 </g>
 <g fill="#9c9c9c">
 </g>
 <g fill="#949494">
 </g>
 <g fill="#8c8c8c">
 </g>
 <g fill="#848484">
 </g>
 <g fill="#7b7b7b">
 </g>
 <g fill="#737373">
 </g>
 <g fill="#6b6b6b">
 </g>
 <g fill="#636363">
 </g>
 <g fill="#5a5a5a">
 </g>
 <g fill="#525252">
 </g>
 <g fill="#4a4a4a">
 </g>
 <g fill="#424242">
 </g>
 <g fill="#3a3a3a">
 </g>
 <g fill="#313131">
 </g>
 <g fill="#292929">
 </g>
 <g fill="#212121">
 </g>
 <g fill="#191919">
 </g>
 <g fill="#101010">
 </g>
 <g fill="#080808">
 </g>
 <g fill="#000000">
 </g>
</svg>